<svg width="97mm" height="21mm" version="1.1" viewBox="0 0 97 21" xmlns="http://www.w3.org/2000/svg">
 <path d="m4 0a4 4 0 0 0-4 4 4 4 0 0 0 0 0v13h3v-13a1 1 0 0 1 1-1v-0h3a3 3 0 0 1 3 3h-0a3 3 0 0 1 0 0 3 3 0 0 1-3 3h-3v3h3a3 3 0 0 1 3 3h3a6 6 0 0 0-2.0314-4.5 6 6 0 0 0 2.0314-4.5 6 6 0 0 0-6-6zm14 4a4 4 0 0 0-4 4v5a4 4 0 0 0 4 4h9v-3h-9a1 1 0 0 1-0 0 1 1 0 0 1-1-1h-0v-5h0a1 1 0 0 1 1-1h5a1 1 0 0 1 1 1 1 1 0 0 1-1 1h-5v3h5v0a4 4 0 0 0 4-4 4 4 0 0 0-4-4zm14 0a4 4 0 0 0-4 4v13h3v-13a1 1 0 0 1 1-1h5a1 1 0 0 1 1 1v5a1 1 0 0 1-1 1h-5v3h5a4 4 0 0 0 4-4h-0v-5h0a4 4 0 0 0-4-4zm14 0a4 4 0 0 0-4 4v9h3v-9a1 1 0 0 1 1-1zm0 0v3h19a1 1 0 0 1 1 1v5a1 1 0 0 1 0 0 1 1 0 0 1-1 1v0h-5v3h5a4 4 0 0 0 4-4v-5a4 4 0 0 0-4-4h-9zm29 0a5 5 0 0 1-5 5v3a8 8 0 0 0 5-1.7554v6.7557h3a5 5 0 0 1 5-5v-3a8 8 0 0 0-5 1.7554v-6.7557zm13 0a4 4 0 0 0-4 4v5a4 4 0 0 0 4 4h9v-3h-9a1 1 0 0 1-1-1h-0v-5h0a1 1 0 0 1 1-1h5a1 1 0 0 1 1 1 1 1 0 0 1-1 1h-5v3h5v0a4 4 0 0 0 4-4 4 4 0 0 0-4-4zm-28 5a4 4 0 0 0-4 4 4 4 0 0 0 4 4v-3a1 1 0 0 1-1-1 1 1 0 0 1 1-1v-0h5v-3zm-50 6v2h3v-2z"/>
</svg>
